<svg width="32" height="32" viewBox="0 0 32 32" fill="none" xmlns="http://www.w3.org/2000/svg">
  <rect width="32" height="32" rx="8" fill="#000000"/>
  <rect x="1" y="1" width="30" height="30" rx="7" stroke="url(#gradient)" stroke-width="2"/>
  
  <!-- Brain/Neural Icon -->
  <path d="M8 12c0-2.2 1.8-4 4-4s4 1.8 4 4v8c0 2.2-1.8 4-4 4s-4-1.8-4-4v-8z" fill="none" stroke="#06b6d4" stroke-width="2"/>
  <path d="M16 12c0-2.2 1.8-4 4-4s4 1.8 4 4v8c0 2.2-1.8 4-4 4s-4-1.8-4-4v-8z" fill="none" stroke="#06b6d4" stroke-width="2"/>
  
  <!-- Neural connections -->
  <circle cx="12" cy="14" r="1" fill="#06b6d4"/>
  <circle cx="20" cy="14" r="1" fill="#06b6d4"/>
  <circle cx="16" cy="18" r="1" fill="#06b6d4"/>
  <line x1="12" y1="14" x2="16" y2="18" stroke="#06b6d4" stroke-width="1"/>
  <line x1="20" y1="14" x2="16" y2="18" stroke="#06b6d4" stroke-width="1"/>
  
  <!-- Timer indicator -->
  <circle cx="16" cy="24" r="2" fill="none" stroke="#a855f7" stroke-width="1.5"/>
  <line x1="16" y1="22" x2="16" y2="24" stroke="#a855f7" stroke-width="1.5"/>
  
  <defs>
    <linearGradient id="gradient" x1="0%" y1="0%" x2="100%" y2="100%">
      <stop offset="0%" style="stop-color:#06b6d4;stop-opacity:1" />
      <stop offset="50%" style="stop-color:#a855f7;stop-opacity:1" />
      <stop offset="100%" style="stop-color:#ec4899;stop-opacity:1" />
    </linearGradient>
  </defs>
</svg>
